<mxfile host="65bd71144e">
    <diagram id="qbCAhfnJ5WsALYeGyNfi" name="페이지-1">
        <mxGraphModel dx="1311" dy="892" grid="0" gridSize="10" guides="1" tooltips="1" connect="1" arrows="1" fold="1" page="0" pageScale="1" pageWidth="827" pageHeight="1169" math="0" shadow="0">
            <root>
                <mxCell id="0"/>
                <mxCell id="1" parent="0"/>
                <mxCell id="2" value="회원 확인" style="whiteSpace=wrap;html=1;" parent="1" vertex="1">
                    <mxGeometry x="320" y="90" width="120" height="60" as="geometry"/>
                </mxCell>
                <mxCell id="14" value="" style="edgeStyle=none;html=1;" parent="1" source="9" target="13" edge="1">
                    <mxGeometry relative="1" as="geometry"/>
                </mxCell>
                <mxCell id="9" value="주문" style="whiteSpace=wrap;html=1;" parent="1" vertex="1">
                    <mxGeometry x="140" y="190" width="120" height="60" as="geometry"/>
                </mxCell>
                <mxCell id="11" value="관리자" style="whiteSpace=wrap;html=1;" parent="1" vertex="1">
                    <mxGeometry x="560" y="190" width="120" height="60" as="geometry"/>
                </mxCell>
                <mxCell id="18" value="" style="edgeStyle=none;html=1;entryX=0.5;entryY=0;entryDx=0;entryDy=0;exitX=0.5;exitY=1;exitDx=0;exitDy=0;" parent="1" source="13" target="15" edge="1">
                    <mxGeometry relative="1" as="geometry"/>
                </mxCell>
                <mxCell id="70" value="회원 False" style="edgeLabel;html=1;align=center;verticalAlign=middle;resizable=0;points=[];" parent="18" vertex="1" connectable="0">
                    <mxGeometry x="0.2803" y="-1" relative="1" as="geometry">
                        <mxPoint as="offset"/>
                    </mxGeometry>
                </mxCell>
                <mxCell id="20" value="회원 True" style="edgeStyle=none;html=1;" parent="1" source="13" target="19" edge="1">
                    <mxGeometry relative="1" as="geometry"/>
                </mxCell>
                <mxCell id="13" value="결제" style="whiteSpace=wrap;html=1;" parent="1" vertex="1">
                    <mxGeometry x="140" y="300" width="120" height="60" as="geometry"/>
                </mxCell>
                <mxCell id="21" style="edgeStyle=none;html=1;exitX=0.5;exitY=1;exitDx=0;exitDy=0;entryX=0.5;entryY=0;entryDx=0;entryDy=0;" parent="1" source="15" target="19" edge="1">
                    <mxGeometry relative="1" as="geometry"/>
                </mxCell>
                <mxCell id="15" value="회원 등록 확인" style="whiteSpace=wrap;html=1;" parent="1" vertex="1">
                    <mxGeometry x="40" y="480" width="120" height="60" as="geometry"/>
                </mxCell>
                <mxCell id="19" value="주문내역 출력 및 확인" style="whiteSpace=wrap;html=1;" parent="1" vertex="1">
                    <mxGeometry x="140" y="650" width="120" height="60" as="geometry"/>
                </mxCell>
                <mxCell id="22" value="마이페이지" style="whiteSpace=wrap;html=1;" parent="1" vertex="1">
                    <mxGeometry x="320" y="300" width="120" height="60" as="geometry"/>
                </mxCell>
                <mxCell id="28" value="" style="edgeStyle=none;html=1;" parent="1" source="25" target="9" edge="1">
                    <mxGeometry relative="1" as="geometry"/>
                </mxCell>
                <mxCell id="25" value="메인 메뉴" style="rhombus;whiteSpace=wrap;html=1;" parent="1" vertex="1">
                    <mxGeometry x="340" y="180" width="80" height="80" as="geometry"/>
                </mxCell>
                <mxCell id="34" style="edgeStyle=none;shape=link;html=1;exitX=0;exitY=0.5;exitDx=0;exitDy=0;width=0;" parent="1" source="29" edge="1">
                    <mxGeometry relative="1" as="geometry">
                        <mxPoint x="620" y="330" as="targetPoint"/>
                    </mxGeometry>
                </mxCell>
                <mxCell id="29" value="주문 메뉴 관리" style="whiteSpace=wrap;html=1;" parent="1" vertex="1">
                    <mxGeometry x="680" y="300" width="120" height="60" as="geometry"/>
                </mxCell>
                <mxCell id="31" value="계정 관리" style="whiteSpace=wrap;html=1;" parent="1" vertex="1">
                    <mxGeometry x="680" y="380" width="120" height="60" as="geometry"/>
                </mxCell>
                <mxCell id="37" value="" style="endArrow=none;html=1;" parent="1" edge="1">
                    <mxGeometry width="50" height="50" relative="1" as="geometry">
                        <mxPoint x="620" y="410" as="sourcePoint"/>
                        <mxPoint x="680" y="410" as="targetPoint"/>
                    </mxGeometry>
                </mxCell>
                <mxCell id="38" value="쿠폰관리" style="whiteSpace=wrap;html=1;" parent="1" vertex="1">
                    <mxGeometry x="680" y="460" width="120" height="60" as="geometry"/>
                </mxCell>
                <mxCell id="43" value="" style="endArrow=none;html=1;" parent="1" edge="1">
                    <mxGeometry width="50" height="50" relative="1" as="geometry">
                        <mxPoint x="620" y="570" as="sourcePoint"/>
                        <mxPoint x="620" y="250" as="targetPoint"/>
                    </mxGeometry>
                </mxCell>
                <mxCell id="44" value="주문내역" style="whiteSpace=wrap;html=1;" parent="1" vertex="1">
                    <mxGeometry x="680" y="540" width="120" height="60" as="geometry"/>
                </mxCell>
                <mxCell id="46" value="" style="endArrow=none;html=1;" parent="1" edge="1">
                    <mxGeometry width="50" height="50" relative="1" as="geometry">
                        <mxPoint x="620" y="489.5" as="sourcePoint"/>
                        <mxPoint x="680" y="489.5" as="targetPoint"/>
                    </mxGeometry>
                </mxCell>
                <mxCell id="47" value="" style="endArrow=none;html=1;" parent="1" edge="1">
                    <mxGeometry width="50" height="50" relative="1" as="geometry">
                        <mxPoint x="620" y="569.5" as="sourcePoint"/>
                        <mxPoint x="680" y="569.5" as="targetPoint"/>
                    </mxGeometry>
                </mxCell>
                <mxCell id="57" style="edgeStyle=none;shape=link;html=1;exitX=0;exitY=0.5;exitDx=0;exitDy=0;width=0;" parent="1" source="58" edge="1">
                    <mxGeometry relative="1" as="geometry">
                        <mxPoint x="380" y="440" as="targetPoint"/>
                    </mxGeometry>
                </mxCell>
                <mxCell id="58" value="회원정보" style="whiteSpace=wrap;html=1;" parent="1" vertex="1">
                    <mxGeometry x="440" y="410" width="120" height="60" as="geometry"/>
                </mxCell>
                <mxCell id="59" value="쿠폰등록" style="whiteSpace=wrap;html=1;" parent="1" vertex="1">
                    <mxGeometry x="440" y="490" width="120" height="60" as="geometry"/>
                </mxCell>
                <mxCell id="60" value="" style="endArrow=none;html=1;" parent="1" edge="1">
                    <mxGeometry width="50" height="50" relative="1" as="geometry">
                        <mxPoint x="380" y="520" as="sourcePoint"/>
                        <mxPoint x="440" y="520" as="targetPoint"/>
                    </mxGeometry>
                </mxCell>
                <mxCell id="61" value="주문내역" style="whiteSpace=wrap;html=1;" parent="1" vertex="1">
                    <mxGeometry x="440" y="570" width="120" height="60" as="geometry"/>
                </mxCell>
                <mxCell id="62" value="" style="endArrow=none;html=1;" parent="1" edge="1">
                    <mxGeometry width="50" height="50" relative="1" as="geometry">
                        <mxPoint x="380" y="680" as="sourcePoint"/>
                        <mxPoint x="380" y="360" as="targetPoint"/>
                    </mxGeometry>
                </mxCell>
                <mxCell id="63" value="즐겨찾기" style="whiteSpace=wrap;html=1;" parent="1" vertex="1">
                    <mxGeometry x="440" y="650" width="120" height="60" as="geometry"/>
                </mxCell>
                <mxCell id="64" value="" style="endArrow=none;html=1;" parent="1" edge="1">
                    <mxGeometry width="50" height="50" relative="1" as="geometry">
                        <mxPoint x="380" y="599.5" as="sourcePoint"/>
                        <mxPoint x="440" y="599.5" as="targetPoint"/>
                    </mxGeometry>
                </mxCell>
                <mxCell id="65" value="" style="endArrow=none;html=1;" parent="1" edge="1">
                    <mxGeometry width="50" height="50" relative="1" as="geometry">
                        <mxPoint x="380" y="679.5" as="sourcePoint"/>
                        <mxPoint x="440" y="679.5" as="targetPoint"/>
                    </mxGeometry>
                </mxCell>
                <mxCell id="67" value="" style="endArrow=none;html=1;" parent="1" edge="1">
                    <mxGeometry width="50" height="50" relative="1" as="geometry">
                        <mxPoint x="20" y="680" as="sourcePoint"/>
                        <mxPoint x="140" y="680" as="targetPoint"/>
                    </mxGeometry>
                </mxCell>
                <mxCell id="68" value="" style="endArrow=none;html=1;" parent="1" edge="1">
                    <mxGeometry width="50" height="50" relative="1" as="geometry">
                        <mxPoint x="20" y="680" as="sourcePoint"/>
                        <mxPoint x="20" y="120" as="targetPoint"/>
                    </mxGeometry>
                </mxCell>
                <mxCell id="69" value="" style="endArrow=classic;html=1;" parent="1" target="2" edge="1">
                    <mxGeometry width="50" height="50" relative="1" as="geometry">
                        <mxPoint x="20" y="120" as="sourcePoint"/>
                        <mxPoint x="70" y="70" as="targetPoint"/>
                    </mxGeometry>
                </mxCell>
                <mxCell id="76" value="" style="endArrow=classic;startArrow=classic;html=1;endSize=6.67;" parent="1" edge="1">
                    <mxGeometry width="50" height="50" relative="1" as="geometry">
                        <mxPoint x="20" y="50" as="sourcePoint"/>
                        <mxPoint x="260" y="50" as="targetPoint"/>
                    </mxGeometry>
                </mxCell>
                <mxCell id="84" value="&lt;font style=&quot;font-size: 18px;&quot;&gt;여미지&lt;/font&gt;" style="edgeLabel;html=1;align=center;verticalAlign=middle;resizable=0;points=[];" parent="76" vertex="1" connectable="0">
                    <mxGeometry x="0.069" y="-1" relative="1" as="geometry">
                        <mxPoint as="offset"/>
                    </mxGeometry>
                </mxCell>
                <mxCell id="77" value="" style="endArrow=none;html=1;" parent="1" edge="1">
                    <mxGeometry width="50" height="50" relative="1" as="geometry">
                        <mxPoint x="20" y="70" as="sourcePoint"/>
                        <mxPoint x="20" y="30" as="targetPoint"/>
                    </mxGeometry>
                </mxCell>
                <mxCell id="79" value="" style="endArrow=none;html=1;" parent="1" edge="1">
                    <mxGeometry width="50" height="50" relative="1" as="geometry">
                        <mxPoint x="259.43" y="70" as="sourcePoint"/>
                        <mxPoint x="259.43" y="30" as="targetPoint"/>
                    </mxGeometry>
                </mxCell>
                <mxCell id="80" value="" style="endArrow=classic;startArrow=classic;html=1;endSize=6.67;" parent="1" edge="1">
                    <mxGeometry width="50" height="50" relative="1" as="geometry">
                        <mxPoint x="260" y="50" as="sourcePoint"/>
                        <mxPoint x="530" y="50" as="targetPoint"/>
                    </mxGeometry>
                </mxCell>
                <mxCell id="85" value="&lt;font style=&quot;font-size: 18px;&quot;&gt;김민지&lt;/font&gt;" style="edgeLabel;html=1;align=center;verticalAlign=middle;resizable=0;points=[];" parent="80" vertex="1" connectable="0">
                    <mxGeometry x="-0.0286" y="2" relative="1" as="geometry">
                        <mxPoint as="offset"/>
                    </mxGeometry>
                </mxCell>
                <mxCell id="81" value="" style="endArrow=none;html=1;" parent="1" edge="1">
                    <mxGeometry width="50" height="50" relative="1" as="geometry">
                        <mxPoint x="530.0000000000001" y="70" as="sourcePoint"/>
                        <mxPoint x="530.0000000000001" y="30" as="targetPoint"/>
                    </mxGeometry>
                </mxCell>
                <mxCell id="82" value="" style="endArrow=classic;startArrow=classic;html=1;endSize=6.67;" parent="1" edge="1">
                    <mxGeometry width="50" height="50" relative="1" as="geometry">
                        <mxPoint x="529.4300000000001" y="50" as="sourcePoint"/>
                        <mxPoint x="799.4300000000001" y="50" as="targetPoint"/>
                    </mxGeometry>
                </mxCell>
                <mxCell id="86" value="&lt;font style=&quot;font-size: 18px;&quot;&gt;유승철&lt;/font&gt;" style="edgeLabel;html=1;align=center;verticalAlign=middle;resizable=0;points=[];" parent="82" vertex="1" connectable="0">
                    <mxGeometry x="-0.0011" y="-2" relative="1" as="geometry">
                        <mxPoint as="offset"/>
                    </mxGeometry>
                </mxCell>
                <mxCell id="83" value="" style="endArrow=none;html=1;" parent="1" edge="1">
                    <mxGeometry width="50" height="50" relative="1" as="geometry">
                        <mxPoint x="799.4300000000001" y="70" as="sourcePoint"/>
                        <mxPoint x="799.4300000000001" y="30" as="targetPoint"/>
                    </mxGeometry>
                </mxCell>
                <mxCell id="87" value="" style="endArrow=classic;startArrow=classic;html=1;entryX=0;entryY=0.5;entryDx=0;entryDy=0;" parent="1" target="11" edge="1">
                    <mxGeometry width="50" height="50" relative="1" as="geometry">
                        <mxPoint x="420" y="220" as="sourcePoint"/>
                        <mxPoint x="470" y="170" as="targetPoint"/>
                    </mxGeometry>
                </mxCell>
                <mxCell id="88" value="" style="endArrow=classic;startArrow=classic;html=1;exitX=0.5;exitY=0;exitDx=0;exitDy=0;" parent="1" source="22" edge="1">
                    <mxGeometry width="50" height="50" relative="1" as="geometry">
                        <mxPoint x="330" y="310" as="sourcePoint"/>
                        <mxPoint x="380" y="260" as="targetPoint"/>
                    </mxGeometry>
                </mxCell>
                <mxCell id="89" value="" style="endArrow=classic;startArrow=classic;html=1;exitX=0.5;exitY=0;exitDx=0;exitDy=0;" parent="1" source="25" edge="1">
                    <mxGeometry width="50" height="50" relative="1" as="geometry">
                        <mxPoint x="330" y="200" as="sourcePoint"/>
                        <mxPoint x="380" y="150" as="targetPoint"/>
                    </mxGeometry>
                </mxCell>
                <mxCell id="90" value="주문 메뉴 관리" style="whiteSpace=wrap;html=1;" parent="1" vertex="1">
                    <mxGeometry x="950" y="70" width="120" height="60" as="geometry"/>
                </mxCell>
                <mxCell id="91" value="메뉴 추가" style="whiteSpace=wrap;html=1;" parent="1" vertex="1">
                    <mxGeometry x="1040" y="160" width="120" height="60" as="geometry"/>
                </mxCell>
                <mxCell id="93" value="메뉴 조회" style="whiteSpace=wrap;html=1;" parent="1" vertex="1">
                    <mxGeometry x="1040" y="240" width="120" height="60" as="geometry"/>
                </mxCell>
                <mxCell id="95" value="메뉴 전체 조회" style="whiteSpace=wrap;html=1;" parent="1" vertex="1">
                    <mxGeometry x="1040" y="320" width="120" height="60" as="geometry"/>
                </mxCell>
                <mxCell id="97" value="메뉴 정보 수정" style="whiteSpace=wrap;html=1;" parent="1" vertex="1">
                    <mxGeometry x="1040" y="560" width="120" height="60" as="geometry"/>
                </mxCell>
                <mxCell id="100" value="메뉴 삭제" style="whiteSpace=wrap;html=1;" parent="1" vertex="1">
                    <mxGeometry x="1040" y="640" width="120" height="60" as="geometry"/>
                </mxCell>
                <mxCell id="103" value="카테고리 조회" style="whiteSpace=wrap;html=1;" parent="1" vertex="1">
                    <mxGeometry x="1040" y="720" width="120" height="60" as="geometry"/>
                </mxCell>
                <mxCell id="106" style="edgeStyle=none;shape=link;html=1;width=0;" parent="1" edge="1">
                    <mxGeometry relative="1" as="geometry">
                        <mxPoint x="1010" y="190" as="targetPoint"/>
                        <mxPoint x="1040" y="190" as="sourcePoint"/>
                    </mxGeometry>
                </mxCell>
                <mxCell id="108" value="" style="endArrow=none;html=1;" parent="1" edge="1">
                    <mxGeometry width="50" height="50" relative="1" as="geometry">
                        <mxPoint x="1010" y="750" as="sourcePoint"/>
                        <mxPoint x="1010" y="130" as="targetPoint"/>
                    </mxGeometry>
                </mxCell>
                <mxCell id="113" value="" style="endArrow=none;html=1;" parent="1" edge="1">
                    <mxGeometry width="50" height="50" relative="1" as="geometry">
                        <mxPoint x="1010" y="270" as="sourcePoint"/>
                        <mxPoint x="1040" y="270" as="targetPoint"/>
                    </mxGeometry>
                </mxCell>
                <mxCell id="114" value="" style="endArrow=none;html=1;" parent="1" edge="1">
                    <mxGeometry width="50" height="50" relative="1" as="geometry">
                        <mxPoint x="1010" y="349.81" as="sourcePoint"/>
                        <mxPoint x="1040" y="349.81" as="targetPoint"/>
                    </mxGeometry>
                </mxCell>
                <mxCell id="115" value="" style="endArrow=none;html=1;" parent="1" edge="1">
                    <mxGeometry width="50" height="50" relative="1" as="geometry">
                        <mxPoint x="1010" y="589.81" as="sourcePoint"/>
                        <mxPoint x="1040" y="589.81" as="targetPoint"/>
                    </mxGeometry>
                </mxCell>
                <mxCell id="116" value="" style="endArrow=none;html=1;" parent="1" edge="1">
                    <mxGeometry width="50" height="50" relative="1" as="geometry">
                        <mxPoint x="1010" y="669.81" as="sourcePoint"/>
                        <mxPoint x="1040" y="669.81" as="targetPoint"/>
                    </mxGeometry>
                </mxCell>
                <mxCell id="117" value="" style="endArrow=none;html=1;" parent="1" edge="1">
                    <mxGeometry width="50" height="50" relative="1" as="geometry">
                        <mxPoint x="1010" y="749.81" as="sourcePoint"/>
                        <mxPoint x="1040" y="749.81" as="targetPoint"/>
                    </mxGeometry>
                </mxCell>
                <mxCell id="118" value="쿠폰관리" style="whiteSpace=wrap;html=1;" parent="1" vertex="1">
                    <mxGeometry x="1850" y="70" width="120" height="60" as="geometry"/>
                </mxCell>
                <mxCell id="119" value="쿠폰 생성" style="whiteSpace=wrap;html=1;" parent="1" vertex="1">
                    <mxGeometry x="1940" y="160" width="120" height="60" as="geometry"/>
                </mxCell>
                <mxCell id="120" value="쿠폰 정보 조회" style="whiteSpace=wrap;html=1;" parent="1" vertex="1">
                    <mxGeometry x="1940" y="240" width="120" height="60" as="geometry"/>
                </mxCell>
                <mxCell id="121" value="쿠폰 전체 조회" style="whiteSpace=wrap;html=1;" parent="1" vertex="1">
                    <mxGeometry x="1940" y="320" width="120" height="60" as="geometry"/>
                </mxCell>
                <mxCell id="122" value="쿠폰 사용" style="whiteSpace=wrap;html=1;" parent="1" vertex="1">
                    <mxGeometry x="1940" y="400" width="120" height="60" as="geometry"/>
                </mxCell>
                <mxCell id="123" value="쿠폰 사용&lt;br&gt;가능 여부 조회" style="whiteSpace=wrap;html=1;" parent="1" vertex="1">
                    <mxGeometry x="1940" y="480" width="120" height="60" as="geometry"/>
                </mxCell>
                <mxCell id="124" value="쿠폰 삭제" style="whiteSpace=wrap;html=1;" parent="1" vertex="1">
                    <mxGeometry x="1940" y="560" width="120" height="60" as="geometry"/>
                </mxCell>
                <mxCell id="125" style="edgeStyle=none;shape=link;html=1;width=0;" parent="1" edge="1">
                    <mxGeometry relative="1" as="geometry">
                        <mxPoint x="1910" y="190" as="targetPoint"/>
                        <mxPoint x="1940" y="190" as="sourcePoint"/>
                    </mxGeometry>
                </mxCell>
                <mxCell id="126" value="" style="endArrow=none;html=1;" parent="1" edge="1">
                    <mxGeometry width="50" height="50" relative="1" as="geometry">
                        <mxPoint x="1910" y="590" as="sourcePoint"/>
                        <mxPoint x="1910" y="130" as="targetPoint"/>
                    </mxGeometry>
                </mxCell>
                <mxCell id="127" value="" style="endArrow=none;html=1;" parent="1" edge="1">
                    <mxGeometry width="50" height="50" relative="1" as="geometry">
                        <mxPoint x="1910" y="270" as="sourcePoint"/>
                        <mxPoint x="1940" y="270" as="targetPoint"/>
                    </mxGeometry>
                </mxCell>
                <mxCell id="128" value="" style="endArrow=none;html=1;" parent="1" edge="1">
                    <mxGeometry width="50" height="50" relative="1" as="geometry">
                        <mxPoint x="1910" y="349.80999999999995" as="sourcePoint"/>
                        <mxPoint x="1940" y="349.80999999999995" as="targetPoint"/>
                    </mxGeometry>
                </mxCell>
                <mxCell id="129" value="" style="endArrow=none;html=1;" parent="1" edge="1">
                    <mxGeometry width="50" height="50" relative="1" as="geometry">
                        <mxPoint x="1910" y="429.80999999999995" as="sourcePoint"/>
                        <mxPoint x="1940" y="429.80999999999995" as="targetPoint"/>
                    </mxGeometry>
                </mxCell>
                <mxCell id="130" value="" style="endArrow=none;html=1;" parent="1" edge="1">
                    <mxGeometry width="50" height="50" relative="1" as="geometry">
                        <mxPoint x="1910" y="509.80999999999995" as="sourcePoint"/>
                        <mxPoint x="1940" y="509.80999999999995" as="targetPoint"/>
                    </mxGeometry>
                </mxCell>
                <mxCell id="131" value="" style="endArrow=none;html=1;" parent="1" edge="1">
                    <mxGeometry width="50" height="50" relative="1" as="geometry">
                        <mxPoint x="1910" y="589.81" as="sourcePoint"/>
                        <mxPoint x="1940" y="589.81" as="targetPoint"/>
                    </mxGeometry>
                </mxCell>
                <mxCell id="132" value="유저관리" style="whiteSpace=wrap;html=1;" parent="1" vertex="1">
                    <mxGeometry x="1254" y="70" width="120" height="60" as="geometry"/>
                </mxCell>
                <mxCell id="133" value="유저 생성" style="whiteSpace=wrap;html=1;" parent="1" vertex="1">
                    <mxGeometry x="1344" y="160" width="120" height="60" as="geometry"/>
                </mxCell>
                <mxCell id="134" value="유저 정보 조회" style="whiteSpace=wrap;html=1;" parent="1" vertex="1">
                    <mxGeometry x="1344" y="240" width="120" height="60" as="geometry"/>
                </mxCell>
                <mxCell id="135" value="유저 전체 조회" style="whiteSpace=wrap;html=1;" parent="1" vertex="1">
                    <mxGeometry x="1344" y="320" width="120" height="60" as="geometry"/>
                </mxCell>
                <mxCell id="136" value="유저 수정" style="whiteSpace=wrap;html=1;" parent="1" vertex="1">
                    <mxGeometry x="1344" y="400" width="120" height="60" as="geometry"/>
                </mxCell>
                <mxCell id="137" value="메뉴 즐겨 찾기" style="whiteSpace=wrap;html=1;fillColor=#336600;" parent="1" vertex="1">
                    <mxGeometry x="1434" y="480" width="120" height="60" as="geometry"/>
                </mxCell>
                <mxCell id="139" style="edgeStyle=none;shape=link;html=1;width=0;" parent="1" edge="1">
                    <mxGeometry relative="1" as="geometry">
                        <mxPoint x="1314" y="190" as="targetPoint"/>
                        <mxPoint x="1344" y="190" as="sourcePoint"/>
                    </mxGeometry>
                </mxCell>
                <mxCell id="140" value="" style="endArrow=none;html=1;" parent="1" edge="1">
                    <mxGeometry width="50" height="50" relative="1" as="geometry">
                        <mxPoint x="1314" y="670" as="sourcePoint"/>
                        <mxPoint x="1314" y="130" as="targetPoint"/>
                    </mxGeometry>
                </mxCell>
                <mxCell id="141" value="" style="endArrow=none;html=1;" parent="1" edge="1">
                    <mxGeometry width="50" height="50" relative="1" as="geometry">
                        <mxPoint x="1314" y="270" as="sourcePoint"/>
                        <mxPoint x="1344" y="270" as="targetPoint"/>
                    </mxGeometry>
                </mxCell>
                <mxCell id="142" value="" style="endArrow=none;html=1;" parent="1" edge="1">
                    <mxGeometry width="50" height="50" relative="1" as="geometry">
                        <mxPoint x="1314" y="349.80999999999995" as="sourcePoint"/>
                        <mxPoint x="1344" y="349.80999999999995" as="targetPoint"/>
                    </mxGeometry>
                </mxCell>
                <mxCell id="143" value="&lt;span style=&quot;color: rgba(0, 0, 0, 0); font-family: monospace; font-size: 0px; text-align: start; background-color: rgb(42, 37, 47);&quot;&gt;%3CmxGraphModel%3E%3Croot%3E%3CmxCell%20id%3D%220%22%2F%3E%3CmxCell%20id%3D%221%22%20parent%3D%220%22%2F%3E%3CmxCell%20id%3D%222%22%20value%3D%22%22%20style%3D%22endArrow%3Dnone%3Bhtml%3D1%3B%22%20edge%3D%221%22%20parent%3D%221%22%3E%3CmxGeometry%20width%3D%2250%22%20height%3D%2250%22%20relative%3D%221%22%20as%3D%22geometry%22%3E%3CmxPoint%20x%3D%221450%22%20y%3D%22499.80999999999995%22%20as%3D%22sourcePoint%22%2F%3E%3CmxPoint%20x%3D%221480%22%20y%3D%22499.80999999999995%22%20as%3D%22targetPoint%22%2F%3E%3C%2FmxGeometry%3E%3C%2FmxCell%3E%3C%2Froot%3E%3C%2FmxGraphModel%3E&lt;/span&gt;" style="endArrow=none;html=1;" parent="1" edge="1">
                    <mxGeometry width="50" height="50" relative="1" as="geometry">
                        <mxPoint x="1314" y="429.80999999999995" as="sourcePoint"/>
                        <mxPoint x="1344" y="429.80999999999995" as="targetPoint"/>
                    </mxGeometry>
                </mxCell>
                <mxCell id="146" value="쿠폰 등록" style="whiteSpace=wrap;html=1;fillColor=#336600;" parent="1" vertex="1">
                    <mxGeometry x="1434" y="560" width="120" height="60" as="geometry"/>
                </mxCell>
                <mxCell id="148" value="유저 삭제" style="whiteSpace=wrap;html=1;" parent="1" vertex="1">
                    <mxGeometry x="1344" y="640" width="120" height="60" as="geometry"/>
                </mxCell>
                <mxCell id="151" value="" style="endArrow=none;html=1;" parent="1" edge="1">
                    <mxGeometry width="50" height="50" relative="1" as="geometry">
                        <mxPoint x="1314" y="669.8" as="sourcePoint"/>
                        <mxPoint x="1344" y="669.8" as="targetPoint"/>
                    </mxGeometry>
                </mxCell>
                <mxCell id="152" value="" style="endArrow=none;html=1;" parent="1" edge="1">
                    <mxGeometry width="50" height="50" relative="1" as="geometry">
                        <mxPoint x="1404" y="590" as="sourcePoint"/>
                        <mxPoint x="1404" y="460" as="targetPoint"/>
                    </mxGeometry>
                </mxCell>
                <mxCell id="153" value="" style="endArrow=none;html=1;" parent="1" edge="1">
                    <mxGeometry width="50" height="50" relative="1" as="geometry">
                        <mxPoint x="1404" y="509.79999999999995" as="sourcePoint"/>
                        <mxPoint x="1434" y="509.79999999999995" as="targetPoint"/>
                    </mxGeometry>
                </mxCell>
                <mxCell id="154" value="" style="endArrow=none;html=1;" parent="1" edge="1">
                    <mxGeometry width="50" height="50" relative="1" as="geometry">
                        <mxPoint x="1404" y="589.8" as="sourcePoint"/>
                        <mxPoint x="1434" y="589.8" as="targetPoint"/>
                    </mxGeometry>
                </mxCell>
                <mxCell id="155" value="주문관리" style="whiteSpace=wrap;html=1;" parent="1" vertex="1">
                    <mxGeometry x="1560" y="70" width="120" height="60" as="geometry"/>
                </mxCell>
                <mxCell id="156" value="주문 생성" style="whiteSpace=wrap;html=1;" parent="1" vertex="1">
                    <mxGeometry x="1650" y="160" width="120" height="60" as="geometry"/>
                </mxCell>
                <mxCell id="157" value="주문 정보 조회" style="whiteSpace=wrap;html=1;" parent="1" vertex="1">
                    <mxGeometry x="1650" y="240" width="120" height="60" as="geometry"/>
                </mxCell>
                <mxCell id="158" value="주문번호" style="whiteSpace=wrap;html=1;" parent="1" vertex="1">
                    <mxGeometry x="1730" y="320" width="120" height="60" as="geometry"/>
                </mxCell>
                <mxCell id="159" value="주문 전체 조회" style="whiteSpace=wrap;html=1;" parent="1" vertex="1">
                    <mxGeometry x="1650" y="490" width="120" height="60" as="geometry"/>
                </mxCell>
                <mxCell id="160" value="주문 수정" style="whiteSpace=wrap;html=1;" parent="1" vertex="1">
                    <mxGeometry x="1650" y="730" width="120" height="60" as="geometry"/>
                </mxCell>
                <mxCell id="161" value="주문 삭제" style="whiteSpace=wrap;html=1;" parent="1" vertex="1">
                    <mxGeometry x="1650" y="810" width="120" height="60" as="geometry"/>
                </mxCell>
                <mxCell id="162" style="edgeStyle=none;shape=link;html=1;width=0;" parent="1" edge="1">
                    <mxGeometry relative="1" as="geometry">
                        <mxPoint x="1620" y="190" as="targetPoint"/>
                        <mxPoint x="1650" y="190" as="sourcePoint"/>
                    </mxGeometry>
                </mxCell>
                <mxCell id="163" value="" style="endArrow=none;html=1;" parent="1" edge="1">
                    <mxGeometry width="50" height="50" relative="1" as="geometry">
                        <mxPoint x="1620" y="840" as="sourcePoint"/>
                        <mxPoint x="1620" y="130" as="targetPoint"/>
                    </mxGeometry>
                </mxCell>
                <mxCell id="164" value="" style="endArrow=none;html=1;" parent="1" edge="1">
                    <mxGeometry width="50" height="50" relative="1" as="geometry">
                        <mxPoint x="1620" y="270" as="sourcePoint"/>
                        <mxPoint x="1650" y="270" as="targetPoint"/>
                    </mxGeometry>
                </mxCell>
                <mxCell id="165" value="" style="endArrow=none;html=1;" parent="1" edge="1">
                    <mxGeometry width="50" height="50" relative="1" as="geometry">
                        <mxPoint x="1700" y="349.75999999999993" as="sourcePoint"/>
                        <mxPoint x="1730" y="349.75999999999993" as="targetPoint"/>
                    </mxGeometry>
                </mxCell>
                <mxCell id="166" value="" style="endArrow=none;html=1;" parent="1" edge="1">
                    <mxGeometry width="50" height="50" relative="1" as="geometry">
                        <mxPoint x="1620" y="519.81" as="sourcePoint"/>
                        <mxPoint x="1650" y="519.81" as="targetPoint"/>
                    </mxGeometry>
                </mxCell>
                <mxCell id="167" value="" style="endArrow=none;html=1;" parent="1" edge="1">
                    <mxGeometry width="50" height="50" relative="1" as="geometry">
                        <mxPoint x="1620" y="759.81" as="sourcePoint"/>
                        <mxPoint x="1650" y="759.81" as="targetPoint"/>
                    </mxGeometry>
                </mxCell>
                <mxCell id="168" value="" style="endArrow=none;html=1;" parent="1" edge="1">
                    <mxGeometry width="50" height="50" relative="1" as="geometry">
                        <mxPoint x="1620" y="839.81" as="sourcePoint"/>
                        <mxPoint x="1650" y="839.81" as="targetPoint"/>
                    </mxGeometry>
                </mxCell>
                <mxCell id="169" value="유저별" style="whiteSpace=wrap;html=1;" parent="1" vertex="1">
                    <mxGeometry x="1730" y="400" width="120" height="60" as="geometry"/>
                </mxCell>
                <mxCell id="170" value="" style="endArrow=none;html=1;" parent="1" edge="1">
                    <mxGeometry width="50" height="50" relative="1" as="geometry">
                        <mxPoint x="1700" y="439.76" as="sourcePoint"/>
                        <mxPoint x="1730" y="439.76" as="targetPoint"/>
                    </mxGeometry>
                </mxCell>
                <mxCell id="171" value="" style="endArrow=none;html=1;" parent="1" edge="1">
                    <mxGeometry width="50" height="50" relative="1" as="geometry">
                        <mxPoint x="1700" y="299.52" as="sourcePoint"/>
                        <mxPoint x="1700" y="440" as="targetPoint"/>
                    </mxGeometry>
                </mxCell>
                <mxCell id="172" value="유승철" style="whiteSpace=wrap;html=1;fillColor=#000099;" parent="1" vertex="1">
                    <mxGeometry x="950" y="40" width="120" height="30" as="geometry"/>
                </mxCell>
                <mxCell id="173" value="유승철" style="whiteSpace=wrap;html=1;fillColor=#000099;" parent="1" vertex="1">
                    <mxGeometry x="1850" y="40" width="120" height="30" as="geometry"/>
                </mxCell>
                <mxCell id="174" value="김민지" style="whiteSpace=wrap;html=1;fillColor=#000099;" parent="1" vertex="1">
                    <mxGeometry x="1254" y="40" width="120" height="30" as="geometry"/>
                </mxCell>
                <mxCell id="175" value="여미지" style="whiteSpace=wrap;html=1;fillColor=#000099;" parent="1" vertex="1">
                    <mxGeometry x="1560" y="40" width="120" height="30" as="geometry"/>
                </mxCell>
                <mxCell id="176" value="기본정렬" style="whiteSpace=wrap;html=1;" parent="1" vertex="1">
                    <mxGeometry x="1130" y="400" width="120" height="60" as="geometry"/>
                </mxCell>
                <mxCell id="177" value="즐겨찾기 우선" style="whiteSpace=wrap;html=1;fillColor=#336600;" parent="1" vertex="1">
                    <mxGeometry x="1130" y="480" width="120" height="60" as="geometry"/>
                </mxCell>
                <mxCell id="178" value="" style="endArrow=none;html=1;" parent="1" edge="1">
                    <mxGeometry width="50" height="50" relative="1" as="geometry">
                        <mxPoint x="1100" y="509.8599999999999" as="sourcePoint"/>
                        <mxPoint x="1130" y="509.8599999999999" as="targetPoint"/>
                    </mxGeometry>
                </mxCell>
                <mxCell id="179" value="" style="endArrow=none;html=1;" parent="1" edge="1">
                    <mxGeometry width="50" height="50" relative="1" as="geometry">
                        <mxPoint x="1100" y="429.85999999999996" as="sourcePoint"/>
                        <mxPoint x="1130" y="429.85999999999996" as="targetPoint"/>
                    </mxGeometry>
                </mxCell>
                <mxCell id="180" value="" style="endArrow=none;html=1;" parent="1" edge="1">
                    <mxGeometry width="50" height="50" relative="1" as="geometry">
                        <mxPoint x="1100" y="510" as="sourcePoint"/>
                        <mxPoint x="1100" y="379.99999999999994" as="targetPoint"/>
                    </mxGeometry>
                </mxCell>
                <mxCell id="182" value="월별, 년별" style="whiteSpace=wrap;html=1;fillColor=#336600;" parent="1" vertex="1">
                    <mxGeometry x="1730" y="570" width="120" height="60" as="geometry"/>
                </mxCell>
                <mxCell id="183" value="정렬방식 선택&lt;br&gt;오름,내림" style="whiteSpace=wrap;html=1;fillColor=#336600;" parent="1" vertex="1">
                    <mxGeometry x="1730" y="650" width="120" height="60" as="geometry"/>
                </mxCell>
                <mxCell id="184" value="" style="endArrow=none;html=1;" parent="1" edge="1">
                    <mxGeometry width="50" height="50" relative="1" as="geometry">
                        <mxPoint x="1699.9999999999995" y="680" as="sourcePoint"/>
                        <mxPoint x="1699.9999999999995" y="550" as="targetPoint"/>
                    </mxGeometry>
                </mxCell>
                <mxCell id="185" value="" style="endArrow=none;html=1;" parent="1" edge="1">
                    <mxGeometry width="50" height="50" relative="1" as="geometry">
                        <mxPoint x="1699.9999999999995" y="599.8" as="sourcePoint"/>
                        <mxPoint x="1729.9999999999995" y="599.8" as="targetPoint"/>
                    </mxGeometry>
                </mxCell>
                <mxCell id="186" value="" style="endArrow=none;html=1;" parent="1" edge="1">
                    <mxGeometry width="50" height="50" relative="1" as="geometry">
                        <mxPoint x="1699.9999999999995" y="679.8" as="sourcePoint"/>
                        <mxPoint x="1729.9999999999995" y="679.8" as="targetPoint"/>
                    </mxGeometry>
                </mxCell>
                <mxCell id="195" value="" style="edgeStyle=none;html=1;" parent="1" source="196" target="198" edge="1">
                    <mxGeometry relative="1" as="geometry"/>
                </mxCell>
                <mxCell id="196" value="User Controller" style="whiteSpace=wrap;html=1;" parent="1" vertex="1">
                    <mxGeometry x="20" y="1000" width="120" height="60" as="geometry"/>
                </mxCell>
                <mxCell id="197" value="" style="edgeStyle=none;html=1;" parent="1" source="198" target="200" edge="1">
                    <mxGeometry relative="1" as="geometry"/>
                </mxCell>
                <mxCell id="198" value="User DTO" style="whiteSpace=wrap;html=1;" parent="1" vertex="1">
                    <mxGeometry x="20" y="1130" width="120" height="60" as="geometry"/>
                </mxCell>
                <mxCell id="199" value="" style="edgeStyle=none;html=1;" parent="1" source="200" target="224" edge="1">
                    <mxGeometry relative="1" as="geometry"/>
                </mxCell>
                <mxCell id="200" value="User VO" style="whiteSpace=wrap;html=1;" parent="1" vertex="1">
                    <mxGeometry x="20" y="1260" width="120" height="60" as="geometry"/>
                </mxCell>
                <mxCell id="201" value="" style="edgeStyle=none;html=1;" parent="1" source="202" target="204" edge="1">
                    <mxGeometry relative="1" as="geometry"/>
                </mxCell>
                <mxCell id="202" value="Coupon Controller" style="whiteSpace=wrap;html=1;" parent="1" vertex="1">
                    <mxGeometry x="190" y="1000" width="120" height="60" as="geometry"/>
                </mxCell>
                <mxCell id="203" value="" style="edgeStyle=none;html=1;" parent="1" source="204" target="206" edge="1">
                    <mxGeometry relative="1" as="geometry"/>
                </mxCell>
                <mxCell id="204" value="Coupon&amp;nbsp;DTO" style="whiteSpace=wrap;html=1;" parent="1" vertex="1">
                    <mxGeometry x="190" y="1130" width="120" height="60" as="geometry"/>
                </mxCell>
                <mxCell id="205" value="" style="edgeStyle=none;html=1;entryX=0.207;entryY=-0.073;entryDx=0;entryDy=0;entryPerimeter=0;" parent="1" source="206" target="225" edge="1">
                    <mxGeometry relative="1" as="geometry"/>
                </mxCell>
                <mxCell id="206" value="Coupon&amp;nbsp;VO" style="whiteSpace=wrap;html=1;" parent="1" vertex="1">
                    <mxGeometry x="190" y="1260" width="120" height="60" as="geometry"/>
                </mxCell>
                <mxCell id="207" value="" style="edgeStyle=none;html=1;" parent="1" source="208" target="210" edge="1">
                    <mxGeometry relative="1" as="geometry"/>
                </mxCell>
                <mxCell id="208" value="Order Controller" style="whiteSpace=wrap;html=1;" parent="1" vertex="1">
                    <mxGeometry x="540" y="1000" width="120" height="60" as="geometry"/>
                </mxCell>
                <mxCell id="209" value="" style="edgeStyle=none;html=1;" parent="1" source="210" target="212" edge="1">
                    <mxGeometry relative="1" as="geometry"/>
                </mxCell>
                <mxCell id="210" value="Order&amp;nbsp;DTO" style="whiteSpace=wrap;html=1;" parent="1" vertex="1">
                    <mxGeometry x="540" y="1130" width="120" height="60" as="geometry"/>
                </mxCell>
                <mxCell id="211" value="" style="edgeStyle=none;html=1;" parent="1" source="212" target="226" edge="1">
                    <mxGeometry relative="1" as="geometry"/>
                </mxCell>
                <mxCell id="212" value="Order&amp;nbsp;VO" style="whiteSpace=wrap;html=1;" parent="1" vertex="1">
                    <mxGeometry x="540" y="1260" width="120" height="60" as="geometry"/>
                </mxCell>
                <mxCell id="213" value="&lt;font style=&quot;font-size: 24px;&quot;&gt;View(모두)&lt;/font&gt;" style="whiteSpace=wrap;html=1;" parent="1" vertex="1">
                    <mxGeometry x="20" y="890" width="640" height="60" as="geometry"/>
                </mxCell>
                <mxCell id="214" value="" style="edgeStyle=none;html=1;" parent="1" edge="1">
                    <mxGeometry relative="1" as="geometry">
                        <mxPoint x="249.5" y="950" as="sourcePoint"/>
                        <mxPoint x="249.5" y="1000" as="targetPoint"/>
                    </mxGeometry>
                </mxCell>
                <mxCell id="215" value="" style="edgeStyle=none;html=1;" parent="1" edge="1">
                    <mxGeometry relative="1" as="geometry">
                        <mxPoint x="83.5" y="950" as="sourcePoint"/>
                        <mxPoint x="83.5" y="1000" as="targetPoint"/>
                    </mxGeometry>
                </mxCell>
                <mxCell id="216" value="" style="edgeStyle=none;html=1;" parent="1" source="217" target="219" edge="1">
                    <mxGeometry relative="1" as="geometry"/>
                </mxCell>
                <mxCell id="217" value="Menu Controller" style="whiteSpace=wrap;html=1;" parent="1" vertex="1">
                    <mxGeometry x="360" y="1000" width="120" height="60" as="geometry"/>
                </mxCell>
                <mxCell id="218" value="" style="edgeStyle=none;html=1;" parent="1" source="219" target="221" edge="1">
                    <mxGeometry relative="1" as="geometry"/>
                </mxCell>
                <mxCell id="219" value="Menu DTO" style="whiteSpace=wrap;html=1;" parent="1" vertex="1">
                    <mxGeometry x="360" y="1130" width="120" height="60" as="geometry"/>
                </mxCell>
                <mxCell id="220" value="" style="edgeStyle=none;html=1;" parent="1" source="221" edge="1">
                    <mxGeometry relative="1" as="geometry">
                        <mxPoint x="420" y="1369" as="targetPoint"/>
                    </mxGeometry>
                </mxCell>
                <mxCell id="221" value="Menu VO" style="whiteSpace=wrap;html=1;" parent="1" vertex="1">
                    <mxGeometry x="360" y="1260" width="120" height="60" as="geometry"/>
                </mxCell>
                <mxCell id="222" value="" style="edgeStyle=none;html=1;" parent="1" edge="1">
                    <mxGeometry relative="1" as="geometry">
                        <mxPoint x="419.5" y="950" as="sourcePoint"/>
                        <mxPoint x="419.5" y="1000" as="targetPoint"/>
                    </mxGeometry>
                </mxCell>
                <mxCell id="223" value="" style="edgeStyle=none;html=1;fillColor=#FFFFFF;" parent="1" edge="1">
                    <mxGeometry relative="1" as="geometry">
                        <mxPoint x="599.5" y="950" as="sourcePoint"/>
                        <mxPoint x="599.5" y="1000" as="targetPoint"/>
                    </mxGeometry>
                </mxCell>
                <mxCell id="224" value="김민지" style="whiteSpace=wrap;html=1;" parent="1" vertex="1">
                    <mxGeometry x="20" y="1369" width="120" height="41" as="geometry"/>
                </mxCell>
                <mxCell id="225" value="유승철" style="whiteSpace=wrap;html=1;" parent="1" vertex="1">
                    <mxGeometry x="190" y="1369" width="290" height="41" as="geometry"/>
                </mxCell>
                <mxCell id="226" value="여미지" style="whiteSpace=wrap;html=1;" parent="1" vertex="1">
                    <mxGeometry x="540" y="1369" width="120" height="41" as="geometry"/>
                </mxCell>
                <mxCell id="228" value="&lt;ol&gt;&lt;li&gt;회원 관리자 구분&lt;/li&gt;&lt;li&gt;회원 추가 수정 삭제&lt;/li&gt;&lt;li&gt;회원 리스트 조회&lt;/li&gt;&lt;li&gt;쿠폰 추가 수정 삭제&lt;/li&gt;&lt;li&gt;즐겨찾기 추가 수정 삭제&lt;/li&gt;&lt;/ol&gt;" style="whiteSpace=wrap;html=1;align=left;" parent="1" vertex="1">
                    <mxGeometry x="764" y="1037" width="180" height="110" as="geometry"/>
                </mxCell>
                <mxCell id="229" value="&lt;ol&gt;&lt;li&gt;쿠폰 추가 수정 삭제&lt;/li&gt;&lt;li&gt;쿠폰 리스트 조회(유효기간 오름차순)&lt;/li&gt;&lt;li&gt;쿠폰 조회&amp;nbsp;&lt;/li&gt;&lt;li&gt;쿠폰 사용여부 확인&lt;/li&gt;&lt;/ol&gt;" style="whiteSpace=wrap;html=1;align=left;" parent="1" vertex="1">
                    <mxGeometry x="974" y="1037" width="180" height="110" as="geometry"/>
                </mxCell>
                <mxCell id="230" value="&lt;ol&gt;&lt;li&gt;메뉴 추가 수정 삭제&lt;/li&gt;&lt;li&gt;메뉴 리스트 조회(즐겨찾기 정렬)&lt;/li&gt;&lt;li&gt;메뉴 조회&lt;/li&gt;&lt;li&gt;카테고리 리스트 조회&lt;/li&gt;&lt;/ol&gt;" style="whiteSpace=wrap;html=1;align=left;" parent="1" vertex="1">
                    <mxGeometry x="1185" y="1037" width="180" height="110" as="geometry"/>
                </mxCell>
                <mxCell id="231" value="&lt;ol&gt;&lt;li&gt;주문 추가 수정 삭제&lt;/li&gt;&lt;li&gt;주문 리스트 조회(후입선출,정렬)&lt;/li&gt;&lt;li&gt;주문 조회(주문번호,유저)&lt;/li&gt;&lt;/ol&gt;" style="whiteSpace=wrap;html=1;align=left;" parent="1" vertex="1">
                    <mxGeometry x="1395" y="1037" width="180" height="110" as="geometry"/>
                </mxCell>
                <mxCell id="232" value="User Controller" style="whiteSpace=wrap;html=1;" parent="1" vertex="1">
                    <mxGeometry x="764" y="997" width="180" height="40" as="geometry"/>
                </mxCell>
                <mxCell id="233" value="Coupon Controller" style="whiteSpace=wrap;html=1;" parent="1" vertex="1">
                    <mxGeometry x="974" y="997" width="180" height="40" as="geometry"/>
                </mxCell>
                <mxCell id="234" value="Menu Controller" style="whiteSpace=wrap;html=1;" parent="1" vertex="1">
                    <mxGeometry x="1185" y="997" width="180" height="40" as="geometry"/>
                </mxCell>
                <mxCell id="235" value="Order Controller" style="whiteSpace=wrap;html=1;" parent="1" vertex="1">
                    <mxGeometry x="1395" y="997" width="180" height="40" as="geometry"/>
                </mxCell>
            </root>
        </mxGraphModel>
    </diagram>
</mxfile>